<?xml version="1.0" encoding="UTF-8"?>
<svg xmlns="http://www.w3.org/2000/svg" xmlns:xlink="http://www.w3.org/1999/xlink" viewBox="0 0 370 250">
  <defs>
    <style>
      .cls-1 {
        fill: #e58703;
      }

      .cls-1, .cls-2, .cls-3, .cls-4, .cls-5, .cls-6, .cls-7, .cls-8, .cls-9, .cls-10, .cls-11, .cls-12, .cls-13, .cls-14, .cls-15, .cls-16, .cls-17, .cls-18, .cls-19, .cls-20, .cls-21, .cls-22, .cls-23, .cls-24, .cls-25, .cls-26, .cls-27, .cls-28, .cls-29, .cls-30, .cls-31, .cls-32, .cls-33, .cls-34, .cls-35, .cls-36, .cls-37, .cls-38, .cls-39, .cls-40, .cls-41, .cls-42, .cls-43, .cls-44, .cls-45, .cls-46, .cls-47, .cls-48, .cls-49, .cls-50 {
        stroke-width: 0px;
      }

      .cls-2 {
        fill: #ae5210;
      }

      .cls-3 {
        fill: url(#Degradado_sin_nombre_62);
      }

      .cls-4 {
        fill: url(#Degradado_sin_nombre_63);
      }

      .cls-5 {
        fill: url(#Degradado_sin_nombre_57);
      }

      .cls-6 {
        fill: #d07208;
      }

      .cls-7 {
        fill: #e78902;
      }

      .cls-8 {
        fill: #e08204;
      }

      .cls-9 {
        fill: #a74b12;
      }

      .cls-10 {
        fill: #ec8d01;
      }

      .cls-11 {
        fill: #b85b0e;
      }

      .cls-12 {
        fill: #b3560f;
      }

      .cls-13 {
        fill: #ba5d0d;
      }

      .cls-14 {
        fill: #d77906;
      }

      .cls-15 {
        fill: #dc7d05;
      }

      .cls-16 {
        fill: #fff;
        mix-blend-mode: overlay;
        opacity: .58;
      }

      .cls-17 {
        fill: #ef9001;
      }

      .cls-18 {
        fill: #c1640c;
      }

      .cls-19 {
        fill: #c4660b;
      }

      .cls-20 {
        fill: #a94d11;
      }

      .cls-21 {
        fill: #ea8b02;
      }

      .cls-22 {
        fill: #d27408;
      }

      .cls-23 {
        fill: #d97b06;
      }

      .cls-24 {
        fill: url(#Degradado_sin_nombre_57-2);
      }

      .cls-25 {
        fill: url(#Degradado_sin_nombre_57-3);
      }

      .cls-26 {
        fill: url(#Degradado_sin_nombre_57-5);
      }

      .cls-27 {
        fill: url(#Degradado_sin_nombre_57-4);
      }

      .cls-28 {
        fill: url(#Degradado_sin_nombre_62-3);
      }

      .cls-29 {
        fill: url(#Degradado_sin_nombre_62-2);
      }

      .cls-30 {
        fill: #cd7009;
      }

      .cls-31 {
        fill: #cb6d09;
      }

      .cls-32 {
        fill: #191b1e;
      }

      .cls-33 {
        fill: #de8005;
      }

      .cls-34 {
        fill: url(#Degradado_sin_nombre_5);
      }

      .cls-35 {
        fill: #ac5011;
      }

      .cls-36 {
        fill: #f19200;
      }

      .cls-37 {
        fill: #f19300;
        mix-blend-mode: color-burn;
        opacity: .16;
      }

      .cls-38 {
        fill: #b15410;
      }

      .cls-39 {
        fill: #c6690a;
      }

      .cls-40 {
        fill: #231916;
      }

      .cls-51 {
        isolation: isolate;
      }

      .cls-41 {
        fill: #bf620c;
      }

      .cls-42 {
        fill: url(#Degradado_sin_nombre_5-5);
      }

      .cls-43 {
        fill: url(#Degradado_sin_nombre_5-4);
      }

      .cls-44 {
        fill: url(#Degradado_sin_nombre_5-3);
      }

      .cls-45 {
        fill: url(#Degradado_sin_nombre_5-2);
      }

      .cls-46 {
        fill: #e38403;
      }

      .cls-47 {
        fill: #d47707;
      }

      .cls-48 {
        fill: #bc600d;
      }

      .cls-49 {
        fill: #b5590f;
      }

      .cls-50 {
        fill: #c86b0a;
      }
    </style>
    <linearGradient id="Degradado_sin_nombre_5" data-name="Degradado sin nombre 5" x1="-2113.29" y1="-2114.7" x2="-2113.29" y2="-2165.05" gradientTransform="translate(-2060.67 2230.27) rotate(90)" gradientUnits="userSpaceOnUse">
      <stop offset="0" stop-color="#f4a400"/>
      <stop offset="1" stop-color="#fde500"/>
    </linearGradient>
    <linearGradient id="Degradado_sin_nombre_5-2" data-name="Degradado sin nombre 5" x1="-2113.29" y1="-2225.07" x2="-2113.29" y2="-2276.16" xlink:href="#Degradado_sin_nombre_5"/>
    <linearGradient id="Degradado_sin_nombre_5-3" data-name="Degradado sin nombre 5" x1="-2113.29" y1="-2287.31" x2="-2113.29" y2="-2337.65" xlink:href="#Degradado_sin_nombre_5"/>
    <linearGradient id="Degradado_sin_nombre_5-4" data-name="Degradado sin nombre 5" x1="-17.84" y1="483.41" x2="-17.84" y2="393.33" gradientTransform="translate(320.41 -321.39)" xlink:href="#Degradado_sin_nombre_5"/>
    <linearGradient id="Degradado_sin_nombre_5-5" data-name="Degradado sin nombre 5" x1="-185.58" y1="483.41" x2="-185.58" y2="393.33" gradientTransform="translate(320.41 -321.39)" xlink:href="#Degradado_sin_nombre_5"/>
    <linearGradient id="Degradado_sin_nombre_62" data-name="Degradado sin nombre 62" x1="-255.45" y1="485.85" x2="-251.29" y2="476.51" gradientTransform="translate(320.41 -321.39)" gradientUnits="userSpaceOnUse">
      <stop offset="0" stop-color="#db810a"/>
      <stop offset="1" stop-color="#f19300" stop-opacity="0"/>
    </linearGradient>
    <linearGradient id="Degradado_sin_nombre_62-2" data-name="Degradado sin nombre 62" x1="-194.16" y1="484.68" x2="-191.75" y2="474.99" xlink:href="#Degradado_sin_nombre_62"/>
    <linearGradient id="Degradado_sin_nombre_63" data-name="Degradado sin nombre 63" x1="-19.79" y1="484.53" x2="-17.54" y2="474.75" gradientTransform="translate(320.41 -321.39)" gradientUnits="userSpaceOnUse">
      <stop offset="0" stop-color="#db810a"/>
      <stop offset=".08" stop-color="rgba(221, 131, 8, .88)" stop-opacity=".88"/>
      <stop offset=".26" stop-color="rgba(227, 135, 6, .61)" stop-opacity=".61"/>
      <stop offset=".44" stop-color="rgba(232, 139, 3, .39)" stop-opacity=".39"/>
      <stop offset=".6" stop-color="rgba(236, 142, 2, .22)" stop-opacity=".22"/>
      <stop offset=".76" stop-color="rgba(238, 145, 1, .1)" stop-opacity=".1"/>
      <stop offset=".9" stop-color="rgba(240, 146, 0, .03)" stop-opacity=".03"/>
      <stop offset="1" stop-color="#f19300" stop-opacity="0"/>
    </linearGradient>
    <linearGradient id="Degradado_sin_nombre_62-3" data-name="Degradado sin nombre 62" x1="-74.89" y1="483.53" x2="-72.38" y2="475.83" xlink:href="#Degradado_sin_nombre_62"/>
    <linearGradient id="Degradado_sin_nombre_57" data-name="Degradado sin nombre 57" x1="-224.5" y1="401.64" x2="-232.1" y2="409.5" gradientTransform="translate(320.41 -321.39)" gradientUnits="userSpaceOnUse">
      <stop offset="0" stop-color="#fff7a2"/>
      <stop offset="1" stop-color="#fae400" stop-opacity="0"/>
    </linearGradient>
    <linearGradient id="Degradado_sin_nombre_57-2" data-name="Degradado sin nombre 57" x1="-169.44" y1="392.5" x2="-179.88" y2="403.31" xlink:href="#Degradado_sin_nombre_57"/>
    <linearGradient id="Degradado_sin_nombre_57-3" data-name="Degradado sin nombre 57" x1="-109.52" y1="392.81" x2="-120.03" y2="403.7" xlink:href="#Degradado_sin_nombre_57"/>
    <linearGradient id="Degradado_sin_nombre_57-4" data-name="Degradado sin nombre 57" x1="-58.89" y1="394.42" x2="-64.4" y2="403.59" xlink:href="#Degradado_sin_nombre_57"/>
    <linearGradient id="Degradado_sin_nombre_57-5" data-name="Degradado sin nombre 57" x1="-10.18" y1="392.07" x2="-15.27" y2="400.54" xlink:href="#Degradado_sin_nombre_57"/>
  </defs>
  <g class="cls-51">
    <g id="Capa_1" data-name="Capa 1">
      <g>
        <path class="cls-40" d="M316.56,73.73h-29.17s-5.96,0-5.96,0c-2.28,0-4.14,1.85-4.14,4.14v5.96s0,.58,0,.58l-8.18-7.86-.86-.82c-1.33-1.28-3.11-1.99-4.95-1.99h-1.19s-36.08,0-36.08,0h-1.79s-8.3,0-8.3,0h-1.79s-36.21,0-36.21,0h-1.18c-1.83,0-3.6.7-4.92,1.97l-.85.81-6.04,5.74v-4.38c0-2.28-1.85-4.14-4.14-4.14h-5.96s-41.24,0-41.24,0h-5.96c-2.28,0-4.14,1.85-4.14,4.14v5.41s-6.28-6.48-6.28-6.48l-2.97-3.07h-4.27s-36.55,0-36.55,0h-5.96c-2.28,0-4.14,1.85-4.14,4.14v5.96s0,90.08,0,90.08l10.1,10.1h0,37.33s4.05,0,4.05,0l2.93-2.8,5.77-5.52,7.97,8.32h2.13s40.1,0,40.1,0h1.14s8.96,0,8.96,0h1.14s16.31,0,16.31,0h5.69s4.4-5.13,4.4-5.13l2.36,5.13h5.3s15.87,0,15.87,0h7.52s3.72-8.54,3.72-8.54l5.45,5.53,2.97,3.01h4.23s37.6,0,37.6,0h.91s9.19,0,9.19,0h.91s29.17,0,29.17,0h0l10.1-10.1v-16.38s0-5.96,0-5.96c0-2.28-1.85-4.14-4.14-4.14h-1.71v-37.57h0l5.85-10.1v-15.94s0-5.96,0-5.96c0-2.28-1.85-4.14-4.14-4.14h-5.96Z"/>
        <path class="cls-32" d="M316.56,66h-29.17s-5.96,0-5.96,0c-2.28,0-4.14,1.85-4.14,4.14v5.96s0,.58,0,.58l-8.18-7.86-.86-.82c-1.33-1.28-3.11-1.99-4.95-1.99h-1.19s-36.08,0-36.08,0h-1.79s-8.3,0-8.3,0h-1.79s-36.21,0-36.21,0h-1.18c-1.83,0-3.6.7-4.92,1.97l-.85.81-6.04,5.74v-4.38c0-2.28-1.85-4.14-4.14-4.14h-5.96s-41.24,0-41.24,0h-5.96c-2.28,0-4.14,1.85-4.14,4.14v5.41s-6.28-6.48-6.28-6.48l-2.97-3.07h-4.27s-36.55,0-36.55,0h-5.96c-2.28,0-4.14,1.85-4.14,4.14v5.96s0,90.08,0,90.08v5.96c0,2.28,1.85,4.14,4.14,4.14h5.96s37.33,0,37.33,0h4.05s2.93-2.8,2.93-2.8l5.77-5.52,7.97,8.32h2.13s40.1,0,40.1,0h1.14s8.96,0,8.96,0h1.14s16.31,0,16.31,0h5.69s4.4-5.13,4.4-5.13l2.36,5.13h5.3s15.87,0,15.87,0h11.15s.09-8.54.09-8.54l5.45,5.53,2.97,3.01h4.23s37.6,0,37.6,0h.91s9.19,0,9.19,0h.91s29.17,0,29.17,0h5.96c2.28,0,4.14-1.85,4.14-4.14v-5.96s0-16.38,0-16.38v-5.96c0-2.28-1.85-4.14-4.14-4.14h-1.71v-37.57h1.71c2.28,0,4.14-1.85,4.14-4.14v-5.96s0-15.94,0-15.94v-5.96c0-2.28-1.85-4.14-4.14-4.14h-5.96Z"/>
        <g>
          <path class="cls-40" d="M90.59,78.47h-36.55s0,90.08,0,90.08h37.33s13.01-12.44,13.01-12.44v-63.42s-13.79-14.22-13.79-14.22ZM87.46,152.21h-16.56v-57.8h16.56v57.8Z"/>
          <path class="cls-40" d="M214.75,78.47h-36.21s-14.13,13.44-14.13,13.44v76.64s17.45,0,17.45,0v-33.52h6.26s11.5,33.52,11.5,33.52h15.87s-11.52-32.86-11.52-32.86h10.78s0-57.22,0-57.22ZM198.46,119.89h-16.6v-25.48h16.6v25.48Z"/>
          <path class="cls-40" d="M276.98,92.18l-14.26-13.71h-36.08s0,77.16,0,77.16l12.74,12.93h37.6s0-37.59,0-37.59l-10.32-7.46,10.32-9.14v-22.19ZM258.6,153.16h-15.29v-21.6h15.29v21.6ZM258.6,116.02h-15.29v-21.6h15.29v21.6Z"/>
          <polygon class="cls-40" points="311.3 94.41 311.3 152.18 317.15 152.18 317.15 168.56 287.98 168.56 287.98 152.18 293.45 152.18 293.45 94.41 287.98 94.41 287.98 78.47 317.15 78.47 317.15 94.41 311.3 94.41"/>
          <polygon class="cls-40" points="131.05 93.9 131.05 116.28 155.45 116.28 155.45 129.68 131.05 129.68 131.05 152.06 155.45 152.06 155.45 168.56 114.21 168.56 114.21 78.47 155.45 78.47 155.45 93.9 131.05 93.9"/>
        </g>
        <g>
          <g>
            <path class="cls-9" d="M87.46,152.21h-16.56v-57.8h16.56v57.8ZM54.04,78.47v90.08s37.33,0,37.33,0l13.01-12.44v-63.42s-13.79-14.22-13.79-14.22h-36.55Z"/>
            <path class="cls-9" d="M198.46,119.89h-16.6v-25.48h16.6v25.48ZM214.75,135.7v-57.22s-36.21,0-36.21,0l-14.13,13.44v76.64s17.45,0,17.45,0v-33.52h6.26s11.5,33.52,11.5,33.52h15.87s-11.52-32.86-11.52-32.86h10.78Z"/>
            <path class="cls-9" d="M258.6,116.02h-15.29v-21.6h15.29v21.6ZM226.64,78.47v77.16s12.74,12.93,12.74,12.93h37.6s0-37.59,0-37.59l-10.32-7.46,10.32-9.14v-22.19s-14.26-13.71-14.26-13.71h-36.08ZM258.6,153.16h-15.29v-21.6h15.29v21.6Z"/>
            <polygon class="cls-9" points="317.15 94.41 317.15 78.47 287.98 78.47 287.98 94.41 293.45 94.41 293.45 152.18 287.98 152.18 287.98 168.56 317.15 168.56 317.15 152.18 311.3 152.18 311.3 94.41 317.15 94.41"/>
            <polygon class="cls-9" points="114.21 168.56 155.45 168.56 155.45 152.06 131.05 152.06 131.05 129.68 155.45 129.68 155.45 116.28 131.05 116.28 131.05 93.9 155.45 93.9 155.45 78.47 114.21 78.47 114.21 168.56"/>
          </g>
          <g>
            <path class="cls-20" d="M87.46,152h-16.56v-57.8h16.56v57.8ZM54.04,78.26v90.08s37.33,0,37.33,0l13.01-12.44v-63.42s-13.79-14.22-13.79-14.22h-36.55Z"/>
            <path class="cls-20" d="M198.46,119.68h-16.6v-25.48h16.6v25.48ZM214.75,135.49v-57.22s-36.21,0-36.21,0l-14.13,13.44v76.64s17.45,0,17.45,0v-33.52h6.26s11.5,33.52,11.5,33.52h15.87s-11.52-32.86-11.52-32.86h10.78Z"/>
            <path class="cls-20" d="M258.6,115.81h-15.29v-21.6h15.29v21.6ZM226.64,78.26v77.16s12.74,12.93,12.74,12.93h37.6s0-37.59,0-37.59l-10.32-7.46,10.32-9.14v-22.19s-14.26-13.71-14.26-13.71h-36.08ZM258.6,152.95h-15.29v-21.6h15.29v21.6Z"/>
            <polygon class="cls-20" points="317.15 94.2 317.15 78.26 287.98 78.26 287.98 94.2 293.45 94.2 293.45 151.97 287.98 151.97 287.98 168.35 317.15 168.35 317.15 151.97 311.3 151.97 311.3 94.2 317.15 94.2"/>
            <polygon class="cls-20" points="114.21 168.35 155.45 168.35 155.45 151.85 131.05 151.85 131.05 129.46 155.45 129.46 155.45 116.07 131.05 116.07 131.05 93.69 155.45 93.69 155.45 78.26 114.21 78.26 114.21 168.35"/>
          </g>
          <g>
            <path class="cls-35" d="M87.46,151.79h-16.56v-57.8h16.56v57.8ZM54.04,78.05v90.08s37.33,0,37.33,0l13.01-12.44v-63.42s-13.79-14.22-13.79-14.22h-36.55Z"/>
            <path class="cls-35" d="M198.46,119.47h-16.6v-25.48h16.6v25.48ZM214.75,135.28v-57.22s-36.21,0-36.21,0l-14.13,13.44v76.64s17.45,0,17.45,0v-33.52h6.26s11.5,33.52,11.5,33.52h15.87s-11.52-32.86-11.52-32.86h10.78Z"/>
            <path class="cls-35" d="M258.6,115.6h-15.29v-21.6h15.29v21.6ZM226.64,78.05v77.16s12.74,12.93,12.74,12.93h37.6s0-37.59,0-37.59l-10.32-7.46,10.32-9.14v-22.19s-14.26-13.71-14.26-13.71h-36.08ZM258.6,152.74h-15.29v-21.6h15.29v21.6Z"/>
            <polygon class="cls-35" points="317.15 93.99 317.15 78.05 287.98 78.05 287.98 93.99 293.45 93.99 293.45 151.76 287.98 151.76 287.98 168.13 317.15 168.13 317.15 151.76 311.3 151.76 311.3 93.99 317.15 93.99"/>
            <polygon class="cls-35" points="114.21 168.13 155.45 168.13 155.45 151.64 131.05 151.64 131.05 129.25 155.45 129.25 155.45 115.86 131.05 115.86 131.05 93.48 155.45 93.48 155.45 78.05 114.21 78.05 114.21 168.13"/>
          </g>
          <g>
            <path class="cls-2" d="M87.46,151.58h-16.56v-57.8h16.56v57.8ZM54.04,77.84v90.08s37.33,0,37.33,0l13.01-12.44v-63.42s-13.79-14.22-13.79-14.22h-36.55Z"/>
            <path class="cls-2" d="M198.46,119.26h-16.6v-25.48h16.6v25.48ZM214.75,135.07v-57.22s-36.21,0-36.21,0l-14.13,13.44v76.64s17.45,0,17.45,0v-33.52h6.26s11.5,33.52,11.5,33.52h15.87s-11.52-32.86-11.52-32.86h10.78Z"/>
            <path class="cls-2" d="M258.6,115.38h-15.29v-21.6h15.29v21.6ZM226.64,77.84v77.16s12.74,12.93,12.74,12.93h37.6s0-37.59,0-37.59l-10.32-7.46,10.32-9.14v-22.19s-14.26-13.71-14.26-13.71h-36.08ZM258.6,152.53h-15.29v-21.6h15.29v21.6Z"/>
            <polygon class="cls-2" points="317.15 93.78 317.15 77.84 287.98 77.84 287.98 93.78 293.45 93.78 293.45 151.54 287.98 151.54 287.98 167.92 317.15 167.92 317.15 151.54 311.3 151.54 311.3 93.78 317.15 93.78"/>
            <polygon class="cls-2" points="114.21 167.92 155.45 167.92 155.45 151.43 131.05 151.43 131.05 129.04 155.45 129.04 155.45 115.65 131.05 115.65 131.05 93.27 155.45 93.27 155.45 77.84 114.21 77.84 114.21 167.92"/>
          </g>
          <g>
            <path class="cls-38" d="M87.46,151.37h-16.56v-57.8h16.56v57.8ZM54.04,77.63v90.08s37.33,0,37.33,0l13.01-12.44v-63.42s-13.79-14.22-13.79-14.22h-36.55Z"/>
            <path class="cls-38" d="M198.46,119.05h-16.6v-25.48h16.6v25.48ZM214.75,134.85v-57.22s-36.21,0-36.21,0l-14.13,13.44v76.64s17.45,0,17.45,0v-33.52h6.26s11.5,33.52,11.5,33.52h15.87s-11.52-32.86-11.52-32.86h10.78Z"/>
            <path class="cls-38" d="M258.6,115.17h-15.29v-21.6h15.29v21.6ZM226.64,77.63v77.16s12.74,12.93,12.74,12.93h37.6s0-37.59,0-37.59l-10.32-7.46,10.32-9.14v-22.19s-14.26-13.71-14.26-13.71h-36.08ZM258.6,152.32h-15.29v-21.6h15.29v21.6Z"/>
            <polygon class="cls-38" points="317.15 93.57 317.15 77.63 287.98 77.63 287.98 93.57 293.45 93.57 293.45 151.33 287.98 151.33 287.98 167.71 317.15 167.71 317.15 151.33 311.3 151.33 311.3 93.57 317.15 93.57"/>
            <polygon class="cls-38" points="114.21 167.71 155.45 167.71 155.45 151.22 131.05 151.22 131.05 128.83 155.45 128.83 155.45 115.44 131.05 115.44 131.05 93.06 155.45 93.06 155.45 77.63 114.21 77.63 114.21 167.71"/>
          </g>
          <g>
            <path class="cls-12" d="M87.46,151.16h-16.56v-57.8h16.56v57.8ZM54.04,77.42v90.08s37.33,0,37.33,0l13.01-12.44v-63.42s-13.79-14.22-13.79-14.22h-36.55Z"/>
            <path class="cls-12" d="M198.46,118.84h-16.6v-25.48h16.6v25.48ZM214.75,134.64v-57.22s-36.21,0-36.21,0l-14.13,13.44v76.64s17.45,0,17.45,0v-33.52h6.26s11.5,33.52,11.5,33.52h15.87s-11.52-32.86-11.52-32.86h10.78Z"/>
            <path class="cls-12" d="M258.6,114.96h-15.29v-21.6h15.29v21.6ZM226.64,77.42v77.16s12.74,12.93,12.74,12.93h37.6s0-37.59,0-37.59l-10.32-7.46,10.32-9.14v-22.19s-14.26-13.71-14.26-13.71h-36.08ZM258.6,152.11h-15.29v-21.6h15.29v21.6Z"/>
            <polygon class="cls-12" points="317.15 93.36 317.15 77.42 287.98 77.42 287.98 93.36 293.45 93.36 293.45 151.12 287.98 151.12 287.98 167.5 317.15 167.5 317.15 151.12 311.3 151.12 311.3 93.36 317.15 93.36"/>
            <polygon class="cls-12" points="114.21 167.5 155.45 167.5 155.45 151 131.05 151 131.05 128.62 155.45 128.62 155.45 115.23 131.05 115.23 131.05 92.85 155.45 92.85 155.45 77.42 114.21 77.42 114.21 167.5"/>
          </g>
          <g>
            <path class="cls-49" d="M87.46,150.95h-16.56v-57.8h16.56v57.8ZM54.04,77.21v90.08s37.33,0,37.33,0l13.01-12.44v-63.42s-13.79-14.22-13.79-14.22h-36.55Z"/>
            <path class="cls-49" d="M198.46,118.63h-16.6v-25.48h16.6v25.48ZM214.75,134.43v-57.22s-36.21,0-36.21,0l-14.13,13.44v76.64s17.45,0,17.45,0v-33.52h6.26s11.5,33.52,11.5,33.52h15.87s-11.52-32.86-11.52-32.86h10.78Z"/>
            <path class="cls-49" d="M258.6,114.75h-15.29v-21.6h15.29v21.6ZM226.64,77.21v77.16s12.74,12.93,12.74,12.93h37.6s0-37.59,0-37.59l-10.32-7.46,10.32-9.14v-22.19s-14.26-13.71-14.26-13.71h-36.08ZM258.6,151.9h-15.29v-21.6h15.29v21.6Z"/>
            <polygon class="cls-49" points="317.15 93.15 317.15 77.21 287.98 77.21 287.98 93.15 293.45 93.15 293.45 150.91 287.98 150.91 287.98 167.29 317.15 167.29 317.15 150.91 311.3 150.91 311.3 93.15 317.15 93.15"/>
            <polygon class="cls-49" points="114.21 167.29 155.45 167.29 155.45 150.79 131.05 150.79 131.05 128.41 155.45 128.41 155.45 115.02 131.05 115.02 131.05 92.64 155.45 92.64 155.45 77.21 114.21 77.21 114.21 167.29"/>
          </g>
          <g>
            <path class="cls-11" d="M87.46,150.74h-16.56v-57.8h16.56v57.8ZM54.04,77v90.08s37.33,0,37.33,0l13.01-12.44v-63.42s-13.79-14.22-13.79-14.22h-36.55Z"/>
            <path class="cls-11" d="M198.46,118.42h-16.6v-25.48h16.6v25.48ZM214.75,134.22v-57.22s-36.21,0-36.21,0l-14.13,13.44v76.64s17.45,0,17.45,0v-33.52h6.26s11.5,33.52,11.5,33.52h15.87s-11.52-32.86-11.52-32.86h10.78Z"/>
            <path class="cls-11" d="M258.6,114.54h-15.29v-21.6h15.29v21.6ZM226.64,77v77.16s12.74,12.93,12.74,12.93h37.6s0-37.59,0-37.59l-10.32-7.46,10.32-9.14v-22.19s-14.26-13.71-14.26-13.71h-36.08ZM258.6,151.69h-15.29v-21.6h15.29v21.6Z"/>
            <polygon class="cls-11" points="317.15 92.94 317.15 77 287.98 77 287.98 92.94 293.45 92.94 293.45 150.7 287.98 150.7 287.98 167.08 317.15 167.08 317.15 150.7 311.3 150.7 311.3 92.94 317.15 92.94"/>
            <polygon class="cls-11" points="114.21 167.08 155.45 167.08 155.45 150.58 131.05 150.58 131.05 128.2 155.45 128.2 155.45 114.81 131.05 114.81 131.05 92.43 155.45 92.43 155.45 77 114.21 77 114.21 167.08"/>
          </g>
          <g>
            <path class="cls-13" d="M87.46,150.53h-16.56v-57.8h16.56v57.8ZM54.04,76.79v90.08s37.33,0,37.33,0l13.01-12.44v-63.42s-13.79-14.22-13.79-14.22h-36.55Z"/>
            <path class="cls-13" d="M198.46,118.21h-16.6v-25.48h16.6v25.48ZM214.75,134.01v-57.22s-36.21,0-36.21,0l-14.13,13.44v76.64s17.45,0,17.45,0v-33.52h6.26s11.5,33.52,11.5,33.52h15.87s-11.52-32.86-11.52-32.86h10.78Z"/>
            <path class="cls-13" d="M258.6,114.33h-15.29v-21.6h15.29v21.6ZM226.64,76.79v77.16s12.74,12.93,12.74,12.93h37.6s0-37.59,0-37.59l-10.32-7.46,10.32-9.14v-22.19s-14.26-13.71-14.26-13.71h-36.08ZM258.6,151.48h-15.29v-21.6h15.29v21.6Z"/>
            <polygon class="cls-13" points="317.15 92.73 317.15 76.79 287.98 76.79 287.98 92.73 293.45 92.73 293.45 150.49 287.98 150.49 287.98 166.87 317.15 166.87 317.15 150.49 311.3 150.49 311.3 92.73 317.15 92.73"/>
            <polygon class="cls-13" points="114.21 166.87 155.45 166.87 155.45 150.37 131.05 150.37 131.05 127.99 155.45 127.99 155.45 114.6 131.05 114.6 131.05 92.21 155.45 92.21 155.45 76.79 114.21 76.79 114.21 166.87"/>
          </g>
          <g>
            <path class="cls-48" d="M87.46,150.32h-16.56v-57.8h16.56v57.8ZM54.04,76.57v90.08s37.33,0,37.33,0l13.01-12.44v-63.42s-13.79-14.22-13.79-14.22h-36.55Z"/>
            <path class="cls-48" d="M198.46,118h-16.6v-25.48h16.6v25.48ZM214.75,133.8v-57.22s-36.21,0-36.21,0l-14.13,13.44v76.64s17.45,0,17.45,0v-33.52h6.26s11.5,33.52,11.5,33.52h15.87s-11.52-32.86-11.52-32.86h10.78Z"/>
            <path class="cls-48" d="M258.6,114.12h-15.29v-21.6h15.29v21.6ZM226.64,76.57v77.16s12.74,12.93,12.74,12.93h37.6s0-37.59,0-37.59l-10.32-7.46,10.32-9.14v-22.19s-14.26-13.71-14.26-13.71h-36.08ZM258.6,151.27h-15.29v-21.6h15.29v21.6Z"/>
            <polygon class="cls-48" points="317.15 92.51 317.15 76.57 287.98 76.57 287.98 92.51 293.45 92.51 293.45 150.28 287.98 150.28 287.98 166.66 317.15 166.66 317.15 150.28 311.3 150.28 311.3 92.51 317.15 92.51"/>
            <polygon class="cls-48" points="114.21 166.66 155.45 166.66 155.45 150.16 131.05 150.16 131.05 127.78 155.45 127.78 155.45 114.39 131.05 114.39 131.05 92 155.45 92 155.45 76.57 114.21 76.57 114.21 166.66"/>
          </g>
          <g>
            <path class="cls-41" d="M87.46,150.1h-16.56v-57.8h16.56v57.8ZM54.04,76.36v90.08s37.33,0,37.33,0l13.01-12.44v-63.42s-13.79-14.22-13.79-14.22h-36.55Z"/>
            <path class="cls-41" d="M198.46,117.79h-16.6v-25.48h16.6v25.48ZM214.75,133.59v-57.22s-36.21,0-36.21,0l-14.13,13.44v76.64s17.45,0,17.45,0v-33.52h6.26s11.5,33.52,11.5,33.52h15.87s-11.52-32.86-11.52-32.86h10.78Z"/>
            <path class="cls-41" d="M258.6,113.91h-15.29v-21.6h15.29v21.6ZM226.64,76.36v77.16s12.74,12.93,12.74,12.93h37.6s0-37.59,0-37.59l-10.32-7.46,10.32-9.14v-22.19s-14.26-13.71-14.26-13.71h-36.08ZM258.6,151.05h-15.29v-21.6h15.29v21.6Z"/>
            <polygon class="cls-41" points="317.15 92.3 317.15 76.36 287.98 76.36 287.98 92.3 293.45 92.3 293.45 150.07 287.98 150.07 287.98 166.45 317.15 166.45 317.15 150.07 311.3 150.07 311.3 92.3 317.15 92.3"/>
            <polygon class="cls-41" points="114.21 166.45 155.45 166.45 155.45 149.95 131.05 149.95 131.05 127.57 155.45 127.57 155.45 114.18 131.05 114.18 131.05 91.79 155.45 91.79 155.45 76.36 114.21 76.36 114.21 166.45"/>
          </g>
          <g>
            <path class="cls-18" d="M87.46,149.89h-16.56v-57.8h16.56v57.8ZM54.04,76.15v90.08s37.33,0,37.33,0l13.01-12.44v-63.42s-13.79-14.22-13.79-14.22h-36.55Z"/>
            <path class="cls-18" d="M198.46,117.58h-16.6v-25.48h16.6v25.48ZM214.75,133.38v-57.22s-36.21,0-36.21,0l-14.13,13.44v76.64s17.45,0,17.45,0v-33.52h6.26s11.5,33.52,11.5,33.52h15.87s-11.52-32.86-11.52-32.86h10.78Z"/>
            <path class="cls-18" d="M258.6,113.7h-15.29v-21.6h15.29v21.6ZM226.64,76.15v77.16s12.74,12.93,12.74,12.93h37.6s0-37.59,0-37.59l-10.32-7.46,10.32-9.14v-22.19s-14.26-13.71-14.26-13.71h-36.08ZM258.6,150.84h-15.29v-21.6h15.29v21.6Z"/>
            <polygon class="cls-18" points="317.15 92.09 317.15 76.15 287.98 76.15 287.98 92.09 293.45 92.09 293.45 149.86 287.98 149.86 287.98 166.24 317.15 166.24 317.15 149.86 311.3 149.86 311.3 92.09 317.15 92.09"/>
            <polygon class="cls-18" points="114.21 166.24 155.45 166.24 155.45 149.74 131.05 149.74 131.05 127.36 155.45 127.36 155.45 113.96 131.05 113.96 131.05 91.58 155.45 91.58 155.45 76.15 114.21 76.15 114.21 166.24"/>
          </g>
          <g>
            <path class="cls-19" d="M87.46,149.68h-16.56v-57.8h16.56v57.8ZM54.04,75.94v90.08s37.33,0,37.33,0l13.01-12.44v-63.42s-13.79-14.22-13.79-14.22h-36.55Z"/>
            <path class="cls-19" d="M198.46,117.36h-16.6v-25.48h16.6v25.48ZM214.75,133.17v-57.22s-36.21,0-36.21,0l-14.13,13.44v76.64s17.45,0,17.45,0v-33.52h6.26s11.5,33.52,11.5,33.52h15.87s-11.52-32.86-11.52-32.86h10.78Z"/>
            <path class="cls-19" d="M258.6,113.49h-15.29v-21.6h15.29v21.6ZM226.64,75.94v77.16s12.74,12.93,12.74,12.93h37.6s0-37.59,0-37.59l-10.32-7.46,10.32-9.14v-22.19s-14.26-13.71-14.26-13.71h-36.08ZM258.6,150.63h-15.29v-21.6h15.29v21.6Z"/>
            <polygon class="cls-19" points="317.15 91.88 317.15 75.94 287.98 75.94 287.98 91.88 293.45 91.88 293.45 149.65 287.98 149.65 287.98 166.03 317.15 166.03 317.15 149.65 311.3 149.65 311.3 91.88 317.15 91.88"/>
            <polygon class="cls-19" points="114.21 166.03 155.45 166.03 155.45 149.53 131.05 149.53 131.05 127.15 155.45 127.15 155.45 113.75 131.05 113.75 131.05 91.37 155.45 91.37 155.45 75.94 114.21 75.94 114.21 166.03"/>
          </g>
          <g>
            <path class="cls-39" d="M87.46,149.47h-16.56v-57.8h16.56v57.8ZM54.04,75.73v90.08s37.33,0,37.33,0l13.01-12.44v-63.42s-13.79-14.22-13.79-14.22h-36.55Z"/>
            <path class="cls-39" d="M198.46,117.15h-16.6v-25.48h16.6v25.48ZM214.75,132.96v-57.22s-36.21,0-36.21,0l-14.13,13.44v76.64s17.45,0,17.45,0v-33.52h6.26s11.5,33.52,11.5,33.52h15.87s-11.52-32.86-11.52-32.86h10.78Z"/>
            <path class="cls-39" d="M258.6,113.28h-15.29v-21.6h15.29v21.6ZM226.64,75.73v77.16s12.74,12.93,12.74,12.93h37.6s0-37.59,0-37.59l-10.32-7.46,10.32-9.14v-22.19s-14.26-13.71-14.26-13.71h-36.08ZM258.6,150.42h-15.29v-21.6h15.29v21.6Z"/>
            <polygon class="cls-39" points="317.15 91.67 317.15 75.73 287.98 75.73 287.98 91.67 293.45 91.67 293.45 149.44 287.98 149.44 287.98 165.81 317.15 165.81 317.15 149.44 311.3 149.44 311.3 91.67 317.15 91.67"/>
            <polygon class="cls-39" points="114.21 165.81 155.45 165.81 155.45 149.32 131.05 149.32 131.05 126.93 155.45 126.93 155.45 113.54 131.05 113.54 131.05 91.16 155.45 91.16 155.45 75.73 114.21 75.73 114.21 165.81"/>
          </g>
          <g>
            <path class="cls-50" d="M87.46,149.26h-16.56v-57.8h16.56v57.8ZM54.04,75.52v90.08s37.33,0,37.33,0l13.01-12.44v-63.42s-13.79-14.22-13.79-14.22h-36.55Z"/>
            <path class="cls-50" d="M198.46,116.94h-16.6v-25.48h16.6v25.48ZM214.75,132.75v-57.22s-36.21,0-36.21,0l-14.13,13.44v76.64s17.45,0,17.45,0v-33.52h6.26s11.5,33.52,11.5,33.52h15.87s-11.52-32.86-11.52-32.86h10.78Z"/>
            <path class="cls-50" d="M258.6,113.06h-15.29v-21.6h15.29v21.6ZM226.64,75.52v77.16s12.74,12.93,12.74,12.93h37.6s0-37.59,0-37.59l-10.32-7.46,10.32-9.14v-22.19s-14.26-13.71-14.26-13.71h-36.08ZM258.6,150.21h-15.29v-21.6h15.29v21.6Z"/>
            <polygon class="cls-50" points="317.15 91.46 317.15 75.52 287.98 75.52 287.98 91.46 293.45 91.46 293.45 149.23 287.98 149.23 287.98 165.6 317.15 165.6 317.15 149.23 311.3 149.23 311.3 91.46 317.15 91.46"/>
            <polygon class="cls-50" points="114.21 165.6 155.45 165.6 155.45 149.11 131.05 149.11 131.05 126.72 155.45 126.72 155.45 113.33 131.05 113.33 131.05 90.95 155.45 90.95 155.45 75.52 114.21 75.52 114.21 165.6"/>
          </g>
          <g>
            <path class="cls-31" d="M87.46,149.05h-16.56v-57.8h16.56v57.8ZM54.04,75.31v90.08s37.33,0,37.33,0l13.01-12.44v-63.42s-13.79-14.22-13.79-14.22h-36.55Z"/>
            <path class="cls-31" d="M198.46,116.73h-16.6v-25.48h16.6v25.48ZM214.75,132.53v-57.22s-36.21,0-36.21,0l-14.13,13.44v76.64s17.45,0,17.45,0v-33.52h6.26s11.5,33.52,11.5,33.52h15.87s-11.52-32.86-11.52-32.86h10.78Z"/>
            <path class="cls-31" d="M258.6,112.85h-15.29v-21.6h15.29v21.6ZM226.64,75.31v77.16s12.74,12.93,12.74,12.93h37.6s0-37.59,0-37.59l-10.32-7.46,10.32-9.14v-22.19s-14.26-13.71-14.26-13.71h-36.08ZM258.6,150h-15.29v-21.6h15.29v21.6Z"/>
            <polygon class="cls-31" points="317.15 91.25 317.15 75.31 287.98 75.31 287.98 91.25 293.45 91.25 293.45 149.01 287.98 149.01 287.98 165.39 317.15 165.39 317.15 149.01 311.3 149.01 311.3 91.25 317.15 91.25"/>
            <polygon class="cls-31" points="114.21 165.39 155.45 165.39 155.45 148.9 131.05 148.9 131.05 126.51 155.45 126.51 155.45 113.12 131.05 113.12 131.05 90.74 155.45 90.74 155.45 75.31 114.21 75.31 114.21 165.39"/>
          </g>
          <g>
            <path class="cls-30" d="M87.46,148.84h-16.56v-57.8h16.56v57.8ZM54.04,75.1v90.08s37.33,0,37.33,0l13.01-12.44v-63.42s-13.79-14.22-13.79-14.22h-36.55Z"/>
            <path class="cls-30" d="M198.46,116.52h-16.6v-25.48h16.6v25.48ZM214.75,132.32v-57.22s-36.21,0-36.21,0l-14.13,13.44v76.64s17.45,0,17.45,0v-33.52h6.26s11.5,33.52,11.5,33.52h15.87s-11.52-32.86-11.52-32.86h10.78Z"/>
            <path class="cls-30" d="M258.6,112.64h-15.29v-21.6h15.29v21.6ZM226.64,75.1v77.16s12.74,12.93,12.74,12.93h37.6s0-37.59,0-37.59l-10.32-7.46,10.32-9.14v-22.19s-14.26-13.71-14.26-13.71h-36.08ZM258.6,149.79h-15.29v-21.6h15.29v21.6Z"/>
            <polygon class="cls-30" points="317.15 91.04 317.15 75.1 287.98 75.1 287.98 91.04 293.45 91.04 293.45 148.8 287.98 148.8 287.98 165.18 317.15 165.18 317.15 148.8 311.3 148.8 311.3 91.04 317.15 91.04"/>
            <polygon class="cls-30" points="114.21 165.18 155.45 165.18 155.45 148.68 131.05 148.68 131.05 126.3 155.45 126.3 155.45 112.91 131.05 112.91 131.05 90.53 155.45 90.53 155.45 75.1 114.21 75.1 114.21 165.18"/>
          </g>
          <g>
            <path class="cls-6" d="M87.46,148.63h-16.56v-57.8h16.56v57.8ZM54.04,74.89v90.08s37.33,0,37.33,0l13.01-12.44v-63.42s-13.79-14.22-13.79-14.22h-36.55Z"/>
            <path class="cls-6" d="M198.46,116.31h-16.6v-25.48h16.6v25.48ZM214.75,132.11v-57.22s-36.21,0-36.21,0l-14.13,13.44v76.64s17.45,0,17.45,0v-33.52h6.26s11.5,33.52,11.5,33.52h15.87s-11.52-32.86-11.52-32.86h10.78Z"/>
            <path class="cls-6" d="M258.6,112.43h-15.29v-21.6h15.29v21.6ZM226.64,74.89v77.16s12.74,12.93,12.74,12.93h37.6s0-37.59,0-37.59l-10.32-7.46,10.32-9.14v-22.19s-14.26-13.71-14.26-13.71h-36.08ZM258.6,149.58h-15.29v-21.6h15.29v21.6Z"/>
            <polygon class="cls-6" points="317.15 90.83 317.15 74.89 287.98 74.89 287.98 90.83 293.45 90.83 293.45 148.59 287.98 148.59 287.98 164.97 317.15 164.97 317.15 148.59 311.3 148.59 311.3 90.83 317.15 90.83"/>
            <polygon class="cls-6" points="114.21 164.97 155.45 164.97 155.45 148.47 131.05 148.47 131.05 126.09 155.45 126.09 155.45 112.7 131.05 112.7 131.05 90.32 155.45 90.32 155.45 74.89 114.21 74.89 114.21 164.97"/>
          </g>
          <g>
            <path class="cls-22" d="M87.46,148.42h-16.56v-57.8h16.56v57.8ZM54.04,74.68v90.08s37.33,0,37.33,0l13.01-12.44v-63.42s-13.79-14.22-13.79-14.22h-36.55Z"/>
            <path class="cls-22" d="M198.46,116.1h-16.6v-25.48h16.6v25.48ZM214.75,131.9v-57.22s-36.21,0-36.21,0l-14.13,13.44v76.64s17.45,0,17.45,0v-33.52h6.26s11.5,33.52,11.5,33.52h15.87s-11.52-32.86-11.52-32.86h10.78Z"/>
            <path class="cls-22" d="M258.6,112.22h-15.29v-21.6h15.29v21.6ZM226.64,74.68v77.16s12.74,12.93,12.74,12.93h37.6s0-37.59,0-37.59l-10.32-7.46,10.32-9.14v-22.19s-14.26-13.71-14.26-13.71h-36.08ZM258.6,149.37h-15.29v-21.6h15.29v21.6Z"/>
            <polygon class="cls-22" points="317.15 90.62 317.15 74.68 287.98 74.68 287.98 90.62 293.45 90.62 293.45 148.38 287.98 148.38 287.98 164.76 317.15 164.76 317.15 148.38 311.3 148.38 311.3 90.62 317.15 90.62"/>
            <polygon class="cls-22" points="114.21 164.76 155.45 164.76 155.45 148.26 131.05 148.26 131.05 125.88 155.45 125.88 155.45 112.49 131.05 112.49 131.05 90.11 155.45 90.11 155.45 74.68 114.21 74.68 114.21 164.76"/>
          </g>
          <g>
            <path class="cls-47" d="M87.46,148.21h-16.56v-57.8h16.56v57.8ZM54.04,74.47v90.08s37.33,0,37.33,0l13.01-12.44v-63.42s-13.79-14.22-13.79-14.22h-36.55Z"/>
            <path class="cls-47" d="M198.46,115.89h-16.6v-25.48h16.6v25.48ZM214.75,131.69v-57.22s-36.21,0-36.21,0l-14.13,13.44v76.64s17.45,0,17.45,0v-33.52h6.26s11.5,33.52,11.5,33.52h15.87s-11.52-32.86-11.52-32.86h10.78Z"/>
            <path class="cls-47" d="M258.6,112.01h-15.29v-21.6h15.29v21.6ZM226.64,74.47v77.16s12.74,12.93,12.74,12.93h37.6s0-37.59,0-37.59l-10.32-7.46,10.32-9.14v-22.19s-14.26-13.71-14.26-13.71h-36.08ZM258.6,149.16h-15.29v-21.6h15.29v21.6Z"/>
            <polygon class="cls-47" points="317.15 90.41 317.15 74.47 287.98 74.47 287.98 90.41 293.45 90.41 293.45 148.17 287.98 148.17 287.98 164.55 317.15 164.55 317.15 148.17 311.3 148.17 311.3 90.41 317.15 90.41"/>
            <polygon class="cls-47" points="114.21 164.55 155.45 164.55 155.45 148.05 131.05 148.05 131.05 125.67 155.45 125.67 155.45 112.28 131.05 112.28 131.05 89.9 155.45 89.9 155.45 74.47 114.21 74.47 114.21 164.55"/>
          </g>
          <g>
            <path class="cls-14" d="M87.46,148h-16.56v-57.8h16.56v57.8ZM54.04,74.26v90.08s37.33,0,37.33,0l13.01-12.44v-63.42s-13.79-14.22-13.79-14.22h-36.55Z"/>
            <path class="cls-14" d="M198.46,115.68h-16.6v-25.48h16.6v25.48ZM214.75,131.48v-57.22s-36.21,0-36.21,0l-14.13,13.44v76.64s17.45,0,17.45,0v-33.52h6.26s11.5,33.52,11.5,33.52h15.87s-11.52-32.86-11.52-32.86h10.78Z"/>
            <path class="cls-14" d="M258.6,111.8h-15.29v-21.6h15.29v21.6ZM226.64,74.26v77.16s12.74,12.93,12.74,12.93h37.6s0-37.59,0-37.59l-10.32-7.46,10.32-9.14v-22.19s-14.26-13.71-14.26-13.71h-36.08ZM258.6,148.95h-15.29v-21.6h15.29v21.6Z"/>
            <polygon class="cls-14" points="317.15 90.19 317.15 74.26 287.98 74.26 287.98 90.19 293.45 90.19 293.45 147.96 287.98 147.96 287.98 164.34 317.15 164.34 317.15 147.96 311.3 147.96 311.3 90.19 317.15 90.19"/>
            <polygon class="cls-14" points="114.21 164.34 155.45 164.34 155.45 147.84 131.05 147.84 131.05 125.46 155.45 125.46 155.45 112.07 131.05 112.07 131.05 89.68 155.45 89.68 155.45 74.26 114.21 74.26 114.21 164.34"/>
          </g>
          <g>
            <path class="cls-23" d="M87.46,147.78h-16.56v-57.8h16.56v57.8ZM54.04,74.04v90.08s37.33,0,37.33,0l13.01-12.44v-63.42s-13.79-14.22-13.79-14.22h-36.55Z"/>
            <path class="cls-23" d="M198.46,115.47h-16.6v-25.48h16.6v25.48ZM214.75,131.27v-57.22s-36.21,0-36.21,0l-14.13,13.44v76.64s17.45,0,17.45,0v-33.52h6.26s11.5,33.52,11.5,33.52h15.87s-11.52-32.86-11.52-32.86h10.78Z"/>
            <path class="cls-23" d="M258.6,111.59h-15.29v-21.6h15.29v21.6ZM226.64,74.04v77.16s12.74,12.93,12.74,12.93h37.6s0-37.59,0-37.59l-10.32-7.46,10.32-9.14v-22.19s-14.26-13.71-14.26-13.71h-36.08ZM258.6,148.74h-15.29v-21.6h15.29v21.6Z"/>
            <polygon class="cls-23" points="317.15 89.98 317.15 74.04 287.98 74.04 287.98 89.98 293.45 89.98 293.45 147.75 287.98 147.75 287.98 164.13 317.15 164.13 317.15 147.75 311.3 147.75 311.3 89.98 317.15 89.98"/>
            <polygon class="cls-23" points="114.21 164.13 155.45 164.13 155.45 147.63 131.05 147.63 131.05 125.25 155.45 125.25 155.45 111.86 131.05 111.86 131.05 89.47 155.45 89.47 155.45 74.04 114.21 74.04 114.21 164.13"/>
          </g>
          <g>
            <path class="cls-15" d="M87.46,147.57h-16.56v-57.8h16.56v57.8ZM54.04,73.83v90.08s37.33,0,37.33,0l13.01-12.44v-63.42s-13.79-14.22-13.79-14.22h-36.55Z"/>
            <path class="cls-15" d="M198.46,115.26h-16.6v-25.48h16.6v25.48ZM214.75,131.06v-57.22s-36.21,0-36.21,0l-14.13,13.44v76.64s17.45,0,17.45,0v-33.52h6.26s11.5,33.52,11.5,33.52h15.87s-11.52-32.86-11.52-32.86h10.78Z"/>
            <path class="cls-15" d="M258.6,111.38h-15.29v-21.6h15.29v21.6ZM226.64,73.83v77.16s12.74,12.93,12.74,12.93h37.6s0-37.59,0-37.59l-10.32-7.46,10.32-9.14v-22.19s-14.26-13.71-14.26-13.71h-36.08ZM258.6,148.52h-15.29v-21.6h15.29v21.6Z"/>
            <polygon class="cls-15" points="317.15 89.77 317.15 73.83 287.98 73.83 287.98 89.77 293.45 89.77 293.45 147.54 287.98 147.54 287.98 163.92 317.15 163.92 317.15 147.54 311.3 147.54 311.3 89.77 317.15 89.77"/>
            <polygon class="cls-15" points="114.21 163.92 155.45 163.92 155.45 147.42 131.05 147.42 131.05 125.04 155.45 125.04 155.45 111.65 131.05 111.65 131.05 89.26 155.45 89.26 155.45 73.83 114.21 73.83 114.21 163.92"/>
          </g>
          <g>
            <path class="cls-33" d="M87.46,147.36h-16.56v-57.8h16.56v57.8ZM54.04,73.62v90.08s37.33,0,37.33,0l13.01-12.44v-63.42s-13.79-14.22-13.79-14.22h-36.55Z"/>
            <path class="cls-33" d="M198.46,115.05h-16.6v-25.48h16.6v25.48ZM214.75,130.85v-57.22s-36.21,0-36.21,0l-14.13,13.44v76.64s17.45,0,17.45,0v-33.52h6.26s11.5,33.52,11.5,33.52h15.87s-11.52-32.86-11.52-32.86h10.78Z"/>
            <path class="cls-33" d="M258.6,111.17h-15.29v-21.6h15.29v21.6ZM226.64,73.62v77.16s12.74,12.93,12.74,12.93h37.6s0-37.59,0-37.59l-10.32-7.46,10.32-9.14v-22.19s-14.26-13.71-14.26-13.71h-36.08ZM258.6,148.31h-15.29v-21.6h15.29v21.6Z"/>
            <polygon class="cls-33" points="317.15 89.56 317.15 73.62 287.98 73.62 287.98 89.56 293.45 89.56 293.45 147.33 287.98 147.33 287.98 163.71 317.15 163.71 317.15 147.33 311.3 147.33 311.3 89.56 317.15 89.56"/>
            <polygon class="cls-33" points="114.21 163.71 155.45 163.71 155.45 147.21 131.05 147.21 131.05 124.83 155.45 124.83 155.45 111.43 131.05 111.43 131.05 89.05 155.45 89.05 155.45 73.62 114.21 73.62 114.21 163.71"/>
          </g>
          <g>
            <path class="cls-8" d="M87.46,147.15h-16.56v-57.8h16.56v57.8ZM54.04,73.41v90.08s37.33,0,37.33,0l13.01-12.44v-63.42s-13.79-14.22-13.79-14.22h-36.55Z"/>
            <path class="cls-8" d="M198.46,114.83h-16.6v-25.48h16.6v25.48ZM214.75,130.64v-57.22s-36.21,0-36.21,0l-14.13,13.44v76.64s17.45,0,17.45,0v-33.52h6.26s11.5,33.52,11.5,33.52h15.87s-11.52-32.86-11.52-32.86h10.78Z"/>
            <path class="cls-8" d="M258.6,110.96h-15.29v-21.6h15.29v21.6ZM226.64,73.41v77.16s12.74,12.93,12.74,12.93h37.6s0-37.59,0-37.59l-10.32-7.46,10.32-9.14v-22.19s-14.26-13.71-14.26-13.71h-36.08ZM258.6,148.1h-15.29v-21.6h15.29v21.6Z"/>
            <polygon class="cls-8" points="317.15 89.35 317.15 73.41 287.98 73.41 287.98 89.35 293.45 89.35 293.45 147.12 287.98 147.12 287.98 163.5 317.15 163.5 317.15 147.12 311.3 147.12 311.3 89.35 317.15 89.35"/>
            <polygon class="cls-8" points="114.21 163.5 155.45 163.5 155.45 147 131.05 147 131.05 124.62 155.45 124.62 155.45 111.22 131.05 111.22 131.05 88.84 155.45 88.84 155.45 73.41 114.21 73.41 114.21 163.5"/>
          </g>
          <g>
            <path class="cls-46" d="M87.46,146.94h-16.56v-57.8h16.56v57.8ZM54.04,73.2v90.08s37.33,0,37.33,0l13.01-12.44v-63.42s-13.79-14.22-13.79-14.22h-36.55Z"/>
            <path class="cls-46" d="M198.46,114.62h-16.6v-25.48h16.6v25.48ZM214.75,130.43v-57.22s-36.21,0-36.21,0l-14.13,13.44v76.64s17.45,0,17.45,0v-33.52h6.26s11.5,33.52,11.5,33.52h15.87s-11.52-32.86-11.52-32.86h10.78Z"/>
            <path class="cls-46" d="M258.6,110.75h-15.29v-21.6h15.29v21.6ZM226.64,73.2v77.16s12.74,12.93,12.74,12.93h37.6s0-37.59,0-37.59l-10.32-7.46,10.32-9.14v-22.19s-14.26-13.71-14.26-13.71h-36.08ZM258.6,147.89h-15.29v-21.6h15.29v21.6Z"/>
            <polygon class="cls-46" points="317.15 89.14 317.15 73.2 287.98 73.2 287.98 89.14 293.45 89.14 293.45 146.91 287.98 146.91 287.98 163.28 317.15 163.28 317.15 146.91 311.3 146.91 311.3 89.14 317.15 89.14"/>
            <polygon class="cls-46" points="114.21 163.28 155.45 163.28 155.45 146.79 131.05 146.79 131.05 124.4 155.45 124.4 155.45 111.01 131.05 111.01 131.05 88.63 155.45 88.63 155.45 73.2 114.21 73.2 114.21 163.28"/>
          </g>
          <g>
            <path class="cls-1" d="M87.46,146.73h-16.56v-57.8h16.56v57.8ZM54.04,72.99v90.08s37.33,0,37.33,0l13.01-12.44v-63.42s-13.79-14.22-13.79-14.22h-36.55Z"/>
            <path class="cls-1" d="M198.46,114.41h-16.6v-25.48h16.6v25.48ZM214.75,130.22v-57.22s-36.21,0-36.21,0l-14.13,13.44v76.64s17.45,0,17.45,0v-33.52h6.26s11.5,33.52,11.5,33.52h15.87s-11.52-32.86-11.52-32.86h10.78Z"/>
            <path class="cls-1" d="M258.6,110.53h-15.29v-21.6h15.29v21.6ZM226.64,72.99v77.16s12.74,12.93,12.74,12.93h37.6s0-37.59,0-37.59l-10.32-7.46,10.32-9.14v-22.19s-14.26-13.71-14.26-13.71h-36.08ZM258.6,147.68h-15.29v-21.6h15.29v21.6Z"/>
            <polygon class="cls-1" points="317.15 88.93 317.15 72.99 287.98 72.99 287.98 88.93 293.45 88.93 293.45 146.7 287.98 146.7 287.98 163.07 317.15 163.07 317.15 146.7 311.3 146.7 311.3 88.93 317.15 88.93"/>
            <polygon class="cls-1" points="114.21 163.07 155.45 163.07 155.45 146.58 131.05 146.58 131.05 124.19 155.45 124.19 155.45 110.8 131.05 110.8 131.05 88.42 155.45 88.42 155.45 72.99 114.21 72.99 114.21 163.07"/>
          </g>
          <g>
            <path class="cls-7" d="M87.46,146.52h-16.56v-57.8h16.56v57.8ZM54.04,72.78v90.08s37.33,0,37.33,0l13.01-12.44v-63.42s-13.79-14.22-13.79-14.22h-36.55Z"/>
            <path class="cls-7" d="M198.46,114.2h-16.6v-25.48h16.6v25.48ZM214.75,130v-57.22s-36.21,0-36.21,0l-14.13,13.44v76.64s17.45,0,17.45,0v-33.52h6.26s11.5,33.52,11.5,33.52h15.87s-11.52-32.86-11.52-32.86h10.78Z"/>
            <path class="cls-7" d="M258.6,110.32h-15.29v-21.6h15.29v21.6ZM226.64,72.78v77.16s12.74,12.93,12.74,12.93h37.6s0-37.59,0-37.59l-10.32-7.46,10.32-9.14v-22.19s-14.26-13.71-14.26-13.71h-36.08ZM258.6,147.47h-15.29v-21.6h15.29v21.6Z"/>
            <polygon class="cls-7" points="317.15 88.72 317.15 72.78 287.98 72.78 287.98 88.72 293.45 88.72 293.45 146.48 287.98 146.48 287.98 162.86 317.15 162.86 317.15 146.48 311.3 146.48 311.3 88.72 317.15 88.72"/>
            <polygon class="cls-7" points="114.21 162.86 155.45 162.86 155.45 146.37 131.05 146.37 131.05 123.98 155.45 123.98 155.45 110.59 131.05 110.59 131.05 88.21 155.45 88.21 155.45 72.78 114.21 72.78 114.21 162.86"/>
          </g>
          <g>
            <path class="cls-21" d="M87.46,146.31h-16.56v-57.8h16.56v57.8ZM54.04,72.57v90.08s37.33,0,37.33,0l13.01-12.44v-63.42s-13.79-14.22-13.79-14.22h-36.55Z"/>
            <path class="cls-21" d="M198.46,113.99h-16.6v-25.48h16.6v25.48ZM214.75,129.79v-57.22s-36.21,0-36.21,0l-14.13,13.44v76.64s17.45,0,17.45,0v-33.52h6.26s11.5,33.52,11.5,33.52h15.87s-11.52-32.86-11.52-32.86h10.78Z"/>
            <path class="cls-21" d="M258.6,110.11h-15.29v-21.6h15.29v21.6ZM226.64,72.57v77.16s12.74,12.93,12.74,12.93h37.6s0-37.59,0-37.59l-10.32-7.46,10.32-9.14v-22.19s-14.26-13.71-14.26-13.71h-36.08ZM258.6,147.26h-15.29v-21.6h15.29v21.6Z"/>
            <polygon class="cls-21" points="317.15 88.51 317.15 72.57 287.98 72.57 287.98 88.51 293.45 88.51 293.45 146.27 287.98 146.27 287.98 162.65 317.15 162.65 317.15 146.27 311.3 146.27 311.3 88.51 317.15 88.51"/>
            <polygon class="cls-21" points="114.21 162.65 155.45 162.65 155.45 146.15 131.05 146.15 131.05 123.77 155.45 123.77 155.45 110.38 131.05 110.38 131.05 88 155.45 88 155.45 72.57 114.21 72.57 114.21 162.65"/>
          </g>
          <g>
            <path class="cls-10" d="M87.46,146.1h-16.56v-57.8h16.56v57.8ZM54.04,72.36v90.08s37.33,0,37.33,0l13.01-12.44v-63.42s-13.79-14.22-13.79-14.22h-36.55Z"/>
            <path class="cls-10" d="M198.46,113.78h-16.6v-25.48h16.6v25.48ZM214.75,129.58v-57.22s-36.21,0-36.21,0l-14.13,13.44v76.64s17.45,0,17.45,0v-33.52h6.26s11.5,33.52,11.5,33.52h15.87s-11.52-32.86-11.52-32.86h10.78Z"/>
            <path class="cls-10" d="M258.6,109.9h-15.29v-21.6h15.29v21.6ZM226.64,72.36v77.16s12.74,12.93,12.74,12.93h37.6s0-37.59,0-37.59l-10.32-7.46,10.32-9.14v-22.19s-14.26-13.71-14.26-13.71h-36.08ZM258.6,147.05h-15.29v-21.6h15.29v21.6Z"/>
            <polygon class="cls-10" points="317.15 88.3 317.15 72.36 287.98 72.36 287.98 88.3 293.45 88.3 293.45 146.06 287.98 146.06 287.98 162.44 317.15 162.44 317.15 146.06 311.3 146.06 311.3 88.3 317.15 88.3"/>
            <polygon class="cls-10" points="114.21 162.44 155.45 162.44 155.45 145.94 131.05 145.94 131.05 123.56 155.45 123.56 155.45 110.17 131.05 110.17 131.05 87.79 155.45 87.79 155.45 72.36 114.21 72.36 114.21 162.44"/>
          </g>
          <g>
            <path class="cls-17" d="M87.46,145.89h-16.56v-57.8h16.56v57.8ZM54.04,72.15v90.08s37.33,0,37.33,0l13.01-12.44v-63.42s-13.79-14.22-13.79-14.22h-36.55Z"/>
            <path class="cls-17" d="M198.46,113.57h-16.6v-25.48h16.6v25.48ZM214.75,129.37v-57.22s-36.21,0-36.21,0l-14.13,13.44v76.64s17.45,0,17.45,0v-33.52h6.26s11.5,33.52,11.5,33.52h15.87s-11.52-32.86-11.52-32.86h10.78Z"/>
            <path class="cls-17" d="M258.6,109.69h-15.29v-21.6h15.29v21.6ZM226.64,72.15v77.16s12.74,12.93,12.74,12.93h37.6s0-37.59,0-37.59l-10.32-7.46,10.32-9.14v-22.19s-14.26-13.71-14.26-13.71h-36.08ZM258.6,146.84h-15.29v-21.6h15.29v21.6Z"/>
            <polygon class="cls-17" points="317.15 88.09 317.15 72.15 287.98 72.15 287.98 88.09 293.45 88.09 293.45 145.85 287.98 145.85 287.98 162.23 317.15 162.23 317.15 145.85 311.3 145.85 311.3 88.09 317.15 88.09"/>
            <polygon class="cls-17" points="114.21 162.23 155.45 162.23 155.45 145.73 131.05 145.73 131.05 123.35 155.45 123.35 155.45 109.96 131.05 109.96 131.05 87.58 155.45 87.58 155.45 72.15 114.21 72.15 114.21 162.23"/>
          </g>
          <g>
            <path class="cls-36" d="M87.46,145.68h-16.56v-57.8h16.56v57.8ZM54.04,71.94v90.08s37.33,0,37.33,0l13.01-12.44v-63.42s-13.79-14.22-13.79-14.22h-36.55Z"/>
            <path class="cls-36" d="M198.46,113.36h-16.6v-25.48h16.6v25.48ZM214.75,129.16v-57.22s-36.21,0-36.21,0l-14.13,13.44v76.64s17.45,0,17.45,0v-33.52h6.26s11.5,33.52,11.5,33.52h15.87s-11.52-32.86-11.52-32.86h10.78Z"/>
            <path class="cls-36" d="M258.6,109.48h-15.29v-21.6h15.29v21.6ZM226.64,71.94v77.16s12.74,12.93,12.74,12.93h37.6s0-37.59,0-37.59l-10.32-7.46,10.32-9.14v-22.19s-14.26-13.71-14.26-13.71h-36.08ZM258.6,146.63h-15.29v-21.6h15.29v21.6Z"/>
            <polygon class="cls-36" points="317.15 87.88 317.15 71.94 287.98 71.94 287.98 87.88 293.45 87.88 293.45 145.64 287.98 145.64 287.98 162.02 317.15 162.02 317.15 145.64 311.3 145.64 311.3 87.88 317.15 87.88"/>
            <polygon class="cls-36" points="114.21 162.02 155.45 162.02 155.45 145.52 131.05 145.52 131.05 123.14 155.45 123.14 155.45 109.75 131.05 109.75 131.05 87.36 155.45 87.36 155.45 71.94 114.21 71.94 114.21 162.02"/>
          </g>
        </g>
        <g>
          <path class="cls-34" d="M90.59,71.94h-36.55s0,90.08,0,90.08h37.33s13.01-12.44,13.01-12.44v-63.42s-13.79-14.22-13.79-14.22ZM87.46,145.68h-16.56v-57.8h16.56v57.8Z"/>
          <path class="cls-45" d="M214.75,71.94h-36.21s-14.13,13.44-14.13,13.44v76.64s17.45,0,17.45,0v-33.52h6.26s11.5,33.52,11.5,33.52h15.87s-11.52-32.86-11.52-32.86h10.78s0-57.22,0-57.22ZM198.46,113.36h-16.6v-25.48h16.6v25.48Z"/>
          <path class="cls-44" d="M276.98,85.64l-14.26-13.71h-36.08s0,77.16,0,77.16l12.74,12.93h37.6s0-37.59,0-37.59l-10.32-7.46,10.32-9.14v-22.19ZM258.6,146.63h-15.29v-21.6h15.29v21.6ZM258.6,109.48h-15.29v-21.6h15.29v21.6Z"/>
          <polygon class="cls-43" points="311.3 87.88 311.3 145.64 317.15 145.64 317.15 162.02 287.98 162.02 287.98 145.64 293.45 145.64 293.45 87.88 287.98 87.88 287.98 71.94 317.15 71.94 317.15 87.88 311.3 87.88"/>
          <polygon class="cls-42" points="131.05 87.36 131.05 109.75 155.45 109.75 155.45 123.14 131.05 123.14 131.05 145.52 155.45 145.52 155.45 162.02 114.21 162.02 114.21 71.94 155.45 71.94 155.45 87.36 131.05 87.36"/>
        </g>
        <g>
          <path class="cls-16" d="M67.76,89.39c1.05-.32,2.1-.64,3.14-.96v-.55h1.8c8.55-2.62,17.08-5.28,25.61-7.98l-7.72-7.96h-9.73c-.1.03-.2.05-.3.08-8.21,2.2-16.42,4.43-24.69,6.42-.61.15-1.23.29-1.84.42v14.75c4.57-1.43,9.15-2.82,13.72-4.21Z"/>
          <path class="cls-16" d="M104.38,99.67v-9.38c-.58.18-1.17.37-1.75.55-5.06,1.6-10.11,3.21-15.17,4.81v9.19c5.64-1.73,11.28-3.45,16.92-5.18Z"/>
          <path class="cls-16" d="M70.9,109.91v-9.08c-1.45.45-2.9.9-4.35,1.34-4.18,1.27-8.36,2.56-12.52,3.89v8.95c5.63-1.69,11.25-3.39,16.87-5.1Z"/>
          <path class="cls-37" d="M93.38,153.88c3.4-1.17,6.8-2.36,10.2-3.54l.79-.76v-15.95c-2.85,1.02-5.7,2.03-8.55,3.04-2.78.99-5.57,1.94-8.37,2.86v6.13h-16.56v-.82c-5.64,1.79-11.27,3.59-16.87,5.53v11.64s17.24,0,17.24,0c7.24-3.07,14.66-5.57,22.11-8.14Z"/>
          <path class="cls-37" d="M174.91,162.02h6.95s0-2.75,0-2.75c-2.32.92-4.63,1.83-6.95,2.75Z"/>
          <path class="cls-37" d="M213.26,155.65l-2.69-7.68c-4.64,1.8-9.27,3.61-13.9,5.43l2.59,7.56c4.67-1.77,9.34-3.54,14-5.32Z"/>
          <path class="cls-16" d="M175.61,101.6c-3.75,1.3-7.53,2.56-11.2,4.07v7.58c5.79-2.33,11.61-4.6,17.45-6.82v-7.17c-2.07.82-4.14,1.61-6.25,2.34Z"/>
          <path class="cls-16" d="M189.23,83.38c-4.99,1.86-9.96,3.75-14.98,5.51-3.36,1.18-6.72,2.39-9.84,4.07v2.95c5.85-2.03,11.66-4.16,17.45-6.36v-1.68h4.39c9.54-3.67,19.02-7.48,28.5-11.29v-2.99c-8.43,3.46-16.98,6.61-25.52,9.78Z"/>
          <path class="cls-16" d="M189.29,71.94h-10.75s-8.31,7.91-8.31,7.91c6.32-2.72,12.69-5.32,19.06-7.91Z"/>
          <path class="cls-16" d="M213.65,86.38c-5.1,1.91-10.16,3.93-15.19,5.99v7.9c5.42-1.96,10.85-3.89,16.29-5.8v-8.5c-.37.13-.73.27-1.1.41Z"/>
          <path class="cls-16" d="M249.2,76.3c-4.91,1.61-9.78,3.35-14.71,4.92-2.62.83-5.27,1.61-7.85,2.56v6.57c13.58-4.67,27.19-9.25,40.78-13.9l-4.69-4.51c-4.51,1.44-9.02,2.89-13.52,4.36Z"/>
          <path class="cls-37" d="M276.98,131.29v-6.85s-1.37-.99-1.37-.99c-5.67,2.11-11.33,4.22-17,6.34v8.51c6.13-2.32,12.26-4.65,18.37-7Z"/>
          <path class="cls-37" d="M242.07,144.59c.41-.16.83-.32,1.25-.48v-8.61c-5.56,2.09-11.13,4.19-16.68,6.3v7.29s1.02,1.04,1.02,1.04c4.8-1.85,9.61-3.7,14.41-5.54Z"/>
          <path class="cls-37" d="M249.04,162.02c5.89-2.23,11.78-4.46,17.67-6.69,3.42-1.3,6.85-2.6,10.27-3.9v-7.49c-13.41,5.11-26.81,10.28-40.21,15.44l2.61,2.65h9.67Z"/>
          <path class="cls-37" d="M311.3,117.39v-7.2c-5.96,2.19-11.9,4.39-17.85,6.6v8.03c5.98-2.4,11.94-4.87,17.85-7.43Z"/>
          <path class="cls-37" d="M297.49,143.3c4.58-1.91,9.17-3.82,13.82-5.55v-7.47c-5.91,2.52-11.87,4.95-17.85,7.31v7.37c1.35-.55,2.69-1.1,4.04-1.66Z"/>
          <path class="cls-37" d="M291.76,145.64h-3.78s0,1.51,0,1.51c1.26-.5,2.52-1,3.78-1.51Z"/>
          <path class="cls-16" d="M123.27,71.94h-9.06s0,2.9,0,2.9c3.02-.97,6.04-1.93,9.06-2.9Z"/>
          <path class="cls-16" d="M119.09,95.19c4.03-1.22,8-2.63,11.96-4.06v-3.77h10.75c4.04-1.32,8.13-2.49,12.33-3.31.44-.09.89-.14,1.33-.15v-9.88c-13.71,4.5-27.47,8.84-41.24,13.17v9.48c1.63-.49,3.25-.99,4.88-1.49Z"/>
          <path class="cls-37" d="M121.43,144.11c3.21-1.12,6.42-2.26,9.62-3.39v-16.7c-5.6,2.06-11.22,4.09-16.84,6.1v16.51c2.4-.84,4.81-1.68,7.21-2.53Z"/>
          <path class="cls-37" d="M148.68,152.72c-7.71,2.72-15.34,5.67-23.16,8.04-1.38.42-2.76.83-4.14,1.26h34.06s0-11.67,0-11.67c-2.26.79-4.51,1.58-6.77,2.37Z"/>
          <path class="cls-37" d="M154.68,115.13c-7.06,2.73-14.15,5.39-21.25,8.01h22.02s0-8.31,0-8.31c-.26.1-.51.2-.77.3Z"/>
        </g>
        <g>
          <polygon class="cls-3" points="56.38 150.35 56.38 160.65 81.52 160.65 56.38 150.35"/>
          <polygon class="cls-29" points="115.62 150.35 115.62 160.65 140.76 160.65 115.62 150.35"/>
          <polygon class="cls-4" points="289.81 150.35 289.81 160.65 314.95 160.65 289.81 150.35"/>
          <polygon class="cls-28" points="228.85 148.5 240.91 160.65 267.11 160.65 228.85 148.5"/>
        </g>
        <g>
          <polygon class="cls-5" points="74.99 73.71 89.13 73.71 102.4 86.98 102.4 101.72 74.99 73.71"/>
          <polygon class="cls-24" points="132.02 73.71 153.66 73.71 153.66 85.35 132.02 73.71"/>
          <polygon class="cls-25" points="191.48 73.71 213.26 73.71 213.26 86.79 191.48 73.71"/>
          <polygon class="cls-27" points="241.33 73.39 262.12 73.39 274.08 85.35 241.33 73.39"/>
          <polygon class="cls-26" points="296.09 73.71 315.28 73.71 315.28 82.77 296.09 73.71"/>
        </g>
      </g>
    </g>
  </g>
</svg>