<?xml version="1.0" encoding="UTF-8"?>
<svg id="Capa_1" data-name="Capa 1" xmlns="http://www.w3.org/2000/svg" viewBox="0 0 350 350">
  <defs>
    <style>
      .cls-1 {
        fill: #000;
      }

      .cls-1, .cls-2, .cls-3, .cls-4 {
        stroke-width: 0px;
      }

      .cls-2 {
        fill: #ca1518;
      }

      .cls-3 {
        fill: #e4282c;
      }

      .cls-4 {
        fill: #fff;
      }
    </style>
  </defs>
  <path class="cls-4" d="M175.05,287.04c-8.15,0-15.64-3.73-20.56-10.22L22.59,102.73c-1.08-1.43-1.31-3.32-.6-4.97l13.78-31.81c.79-1.81,2.57-2.99,4.55-2.99h267.09c1.89,0,3.62,1.07,4.45,2.77l16.04,32.6c.83,1.69.63,3.7-.5,5.19l-131.82,173.34c-4.92,6.47-12.4,10.18-20.53,10.18h0ZM175,233.94l98.91-129.17H76.09s98.91,129.17,98.91,129.17Z"/>
  <path class="cls-1" d="M307.41,67.92l16.04,32.6-131.82,173.34c-4.17,5.48-10.38,8.22-16.59,8.22s-12.44-2.75-16.61-8.25L26.55,99.73l13.78-31.81h267.09ZM175,242.1l108.96-142.29H66.04s108.96,142.29,108.96,142.29M307.41,58H40.33c-3.95,0-7.53,2.35-9.1,5.98l-13.78,31.81c-1.42,3.28-.97,7.08,1.2,9.93l131.89,174.09c5.86,7.74,14.8,12.18,24.51,12.18,9.69,0,18.61-4.42,24.48-12.14l131.82-173.34c2.28-2.99,2.66-7.01,1.01-10.38l-16.04-32.6c-1.67-3.39-5.12-5.54-8.9-5.54M86.13,109.73h177.73s-88.87,116.05-88.87,116.05l-88.87-116.05Z"/>
  <polygon class="cls-3" points="66.04 99.81 283.96 99.81 175 242.11 66.04 99.81"/>
  <polygon class="cls-2" points="297.57 110.12 297.57 90.66 59.48 90.66 59.48 110.12 148.76 110.12 148.76 149.03 97.64 149.03 97.64 163.92 148.76 163.92 148.76 199.4 130.07 199.4 130.07 214.28 148.76 214.28 148.76 224.96 163.26 224.96 163.26 214.28 221.64 214.28 221.64 199.4 163.26 199.4 163.26 163.92 254.07 163.92 254.07 149.03 163.26 149.03 163.26 110.12 297.57 110.12"/>
  <path class="cls-4" d="M307.41,67.92H40.33s-13.78,31.81-13.78,31.81l131.89,174.09c8.33,10.99,24.84,11.01,33.19.03l131.82-173.34-16.04-32.6ZM175,242.1L66.04,99.81h217.92s-108.96,142.29-108.96,142.29Z"/>
  <rect class="cls-4" x="123.96" y="91.42" width="30.14" height="128.58"/>
  <rect class="cls-4" x="84.28" y="127.29" width="186.58" height="27.47"/>
  <rect class="cls-4" x="131.59" y="177.65" width="101.11" height="27.47"/>
</svg>