<?xml version="1.0" encoding="UTF-8"?>
<svg id="Capa_1" data-name="Capa 1" xmlns="http://www.w3.org/2000/svg" viewBox="0 0 350 350">
  <defs>
    <style>
      .cls-1 {
        fill: #3e57a3;
      }

      .cls-1, .cls-2, .cls-3, .cls-4, .cls-5 {
        stroke-width: 0px;
      }

      .cls-2 {
        fill: #000;
      }

      .cls-3 {
        fill: #31468c;
      }

      .cls-4 {
        fill: #2d3375;
      }

      .cls-5 {
        fill: #fff;
      }
    </style>
  </defs>
  <path class="cls-2" d="M282.6,199.76c0,59.43-48.17,107.6-107.6,107.6-59.43,0-107.6-48.17-107.6-107.6s48.17-107.6,107.6-107.6c59.43,0,107.6,48.17,107.6,107.6"/>
  <path class="cls-1" d="M270.04,199.76c0,.13,0,.27,0,.4-.21,52.36-42.72,94.73-95.13,94.73-.24,0-.48,0-.71,0-20.55-.15-39.55-6.82-55.04-18.04-23.86-17.28-39.38-45.37-39.38-77.08,0-52.54,42.59-95.13,95.13-95.13,24.1,0,46.1,8.96,62.86,23.73,19.78,17.43,32.27,42.95,32.27,71.4"/>
  <path class="cls-3" d="M270.04,199.76c0,.13,0,.27,0,.4-.21,52.36-42.72,94.73-95.13,94.73-.24,0-.48,0-.71,0-20.55-.15-39.55-6.82-55.04-18.04-19.78-17.43-32.25-42.95-32.25-71.38,0-52.54,42.59-95.13,95.13-95.13,20.82,0,40.08,6.69,55.74,18.03,19.78,17.43,32.27,42.95,32.27,71.4"/>
  <path class="cls-4" d="M270.04,200.16c-.21,52.36-42.72,94.73-95.13,94.73-.24,0-.48,0-.71,0l-61.09-50.59-.27-.22,16.44-36.62,60.36-72.89.48-.58,79.92,66.18Z"/>
  <polygon class="cls-5" points="239.94 244.3 201.87 244.3 175.09 183.73 149.75 244.3 112.74 244.3 112.83 244.07 129.27 207.45 161.99 134.56 189.63 134.56 239.94 244.3"/>
  <path class="cls-2" d="M166.09,64.37c0,12-9.73,21.73-21.73,21.73s-21.73-9.73-21.73-21.73c0-12,9.73-21.73,21.73-21.73,12,0,21.73,9.73,21.73,21.73"/>
  <path class="cls-2" d="M230.22,64.37c0,12-9.73,21.73-21.73,21.73-12,0-21.73-9.73-21.73-21.73s9.73-21.73,21.73-21.73c12,0,21.73,9.73,21.73,21.73"/>
</svg>