<?xml version="1.0" encoding="UTF-8"?>
<svg xmlns="http://www.w3.org/2000/svg" viewBox="0 0 250 250">
  <defs>
    <style>
      .cls-1 {
        fill: #004a43;
      }

      .cls-1, .cls-2 {
        stroke-width: 0px;
      }

      .cls-3 {
        isolation: isolate;
      }

      .cls-4 {
        mix-blend-mode: multiply;
        opacity: .4;
      }

      .cls-2 {
        fill: #fff;
      }
    </style>
  </defs>
  <g class="cls-3">
    <g id="Capa_1" data-name="Capa 1">
      <g>
        <g class="cls-4">
          <path class="cls-1" d="M107.66,156.01c-2.59,0-4.46-.58-5.61-1.73-1.16-1.15-1.73-3.03-1.73-5.61v-27.34c0-2.58.58-4.45,1.73-5.61s3.02-1.73,5.61-1.73h54.68c2.58,0,4.45.58,5.61,1.73,1.15,1.16,1.73,3.03,1.73,5.61v27.34c0,2.58-.58,4.46-1.73,5.61s-3.03,1.73-5.61,1.73h-54.68Z"/>
        </g>
        <path class="cls-2" d="M97.66,146.01c-2.59,0-4.46-.58-5.61-1.73-1.16-1.15-1.73-3.03-1.73-5.61v-27.34c0-2.58.58-4.45,1.73-5.61s3.02-1.73,5.61-1.73h54.68c2.58,0,4.45.58,5.61,1.73,1.15,1.16,1.73,3.03,1.73,5.61v27.34c0,2.58-.58,4.46-1.73,5.61s-3.03,1.73-5.61,1.73h-54.68Z"/>
      </g>
    </g>
  </g>
</svg>