<?xml version="1.0" encoding="UTF-8"?>
<svg xmlns="http://www.w3.org/2000/svg" viewBox="0 0 250 250">
  <defs>
    <style>
      .cls-1 {
        fill: #004a43;
      }

      .cls-1, .cls-2 {
        stroke-width: 0px;
      }

      .cls-3 {
        isolation: isolate;
      }

      .cls-4 {
        mix-blend-mode: multiply;
        opacity: .4;
      }

      .cls-2 {
        fill: #fff;
      }
    </style>
  </defs>
  <g class="cls-3">
    <g id="Capa_1" data-name="Capa 1">
      <g>
        <g class="cls-4">
          <path class="cls-1" d="M160.12,201.14c.01,3.22-.7,5.55-2.13,6.99-1.43,1.44-3.76,2.17-6.97,2.18l-31.47.12c-3.21.01-5.54-.7-6.99-2.13-1.44-1.43-2.17-3.76-2.18-6.97l-.16-42.63-41.36.16c-3.21.01-5.55-.7-6.99-2.13-1.45-1.43-2.17-3.75-2.18-6.97l-.11-28.93c-.01-3.21.7-5.54,2.13-6.99,1.43-1.44,3.76-2.17,6.97-2.18l41.36-.16-.16-42.63c-.01-3.21.7-5.54,2.13-6.99,1.43-1.44,3.76-2.17,6.97-2.19l31.47-.12c3.21-.01,5.54.7,6.99,2.13,1.44,1.43,2.17,3.76,2.18,6.97l.16,42.63,41.36-.16c3.21-.01,5.54.7,6.99,2.13,1.44,1.43,2.17,3.76,2.18,6.97l.11,28.93c.01,3.22-.7,5.54-2.13,6.99-1.44,1.44-3.76,2.17-6.97,2.18l-41.36.16.16,42.63Z"/>
        </g>
        <path class="cls-2" d="M150.12,191.14c.01,3.22-.7,5.55-2.13,6.99-1.43,1.44-3.76,2.17-6.97,2.18l-31.47.12c-3.21.01-5.54-.7-6.99-2.13-1.44-1.43-2.17-3.76-2.18-6.97l-.16-42.63-41.36.16c-3.21.01-5.55-.7-6.99-2.13-1.45-1.43-2.17-3.75-2.18-6.97l-.11-28.93c-.01-3.21.7-5.54,2.13-6.99,1.43-1.44,3.76-2.17,6.97-2.18l41.36-.16-.16-42.63c-.01-3.21.7-5.54,2.13-6.99,1.43-1.44,3.76-2.17,6.97-2.19l31.47-.12c3.21-.01,5.54.7,6.99,2.13,1.44,1.43,2.17,3.76,2.18,6.97l.16,42.63,41.36-.16c3.21-.01,5.54.7,6.99,2.13,1.44,1.43,2.17,3.76,2.18,6.97l.11,28.93c.01,3.22-.7,5.54-2.13,6.99-1.44,1.44-3.76,2.17-6.97,2.18l-41.36.16.16,42.63Z"/>
      </g>
    </g>
  </g>
</svg>